<svg xmlns="http://www.w3.org/2000/svg" width="187.98" height="65" viewBox="0 0 187.98 65"> <title>resaleworld_logo_vector</title> <path d="M69.39,18.42s1.77-3.82,2.51-6.15l1.87,1.59S92.41-2.55,114.7.34c0,0,25.54,2.8,17.34,29.27,0,0-3.54,10.63-14.82,19.67l-2.14.58s5.68-3.82,12-14.26c0,0,8.48-14.64-.37-25.45,0,0-6.71-9.51-24.89-7.27,0,0-11.56.45-26.94,11.84l2.42,2S69.39,18,69.39,18.42Z" fill="#a4cd4e"/> <path d="M127,46.57s-1.77,3.83-2.52,6.16l-1.86-1.59S104,67.55,81.67,64.66c0,0-25.55-2.8-17.34-29.27,0,0,3.54-10.63,14.82-19.67l2.14-.56s-5.68,3.82-12,14.27c0,0-8.48,14.63.37,25.44,0,0,6.71,9.51,24.89,7.27,0,0,11.56-.45,26.94-11.84l-2.42-1.95S127,47,127,46.57Z" fill="#6c4299"/> <path d="M0,25.94H2.32l0,2.75a7.33,7.33,0,0,1,2.28-2.57A2.32,2.32,0,0,1,7.17,26a6.44,6.44,0,0,1,1.49,1L7.5,28.9a4,4,0,0,0-1.87-1,2.67,2.67,0,0,0-2.15.79A4.81,4.81,0,0,0,2.4,30.85l0,7.12H0Z" fill="#f9a342"/> <path d="M17.9,26.54a5.68,5.68,0,0,0-6,0,5.54,5.54,0,0,0-2.36,3.64s-.37,3,.09,3.85a5.61,5.61,0,0,0,4.22,4A7.7,7.7,0,0,0,20,36.77V34.51s-3.94,3-7,.42c0,0-.95-.5-1.24-2.65h8.45s.5-3.78-2.32-5.72m-6.17,4.12c.62-3.06,3.06-3.06,3.06-3.06a3,3,0,0,1,3,3.06Z" fill="#f9a342"/> <path d="M29.29,26.54l0,2.52A12.74,12.74,0,0,0,27,27.86a4.51,4.51,0,0,0-1.94,0s-1.58.87-.25,1.95a35.52,35.52,0,0,1,3.65,2.53s3.1,1.9.16,5c0,0-2.26,2.11-6.83-.12l-.07-2.68a7.71,7.71,0,0,0,4,1.54s1.95,0,1.81-1.54c0,0-.13-.62-2.45-1.86,0,0-3.23-2-3.23-3.07A3.36,3.36,0,0,1,23.56,26s2.32-1.2,5.75.5" fill="#f9a342"/> <path d="M39.69,36l0-7.58s-2.19-5.3-8.33-1.24l0,2.53s1.91-1.54,2.12-1.42c0,0,3.19-1.16,3.73,1l.08,1.45a18.79,18.79,0,0,0-4.47,1.81,3,3,0,0,0,.91,5.69,4.38,4.38,0,0,0,2.86-.75l.78-.57s-.21.78,1,1.28c0,0,1,.49,3-.79l0-1.7s-1.57,1.5-1.7.29m-2.35-.49s-2.53,2.36-3.73-.13c0,0-.87-2.26,3.73-3.31Z" fill="#f9a342"/> <path d="M43,19.62h2.48L45.41,38H43Z" fill="#f9a342"/> <path d="M56.35,26.62a5.68,5.68,0,0,0-6,0,5.54,5.54,0,0,0-2.36,3.6s-.37,3,.09,3.85a5.63,5.63,0,0,0,4.22,4,7.66,7.66,0,0,0,6.09-1.25V34.59s-3.94,2.94-7,.41c0,0-1-.49-1.24-2.64h8.45s.5-3.77-2.32-5.72m-6.17,4.14c.62-3.07,3.06-3.07,3.06-3.07a3,3,0,0,1,3,3.07Z" fill="#f9a342"/> <path d="M59.83,25.62l3.94,0,2.39,6.63,3.36-6.73h2l2.74,6.72,2.57-6.72h4L75.41,38.06H73.34l-3-6.63-3.07,6.63h-2Z" fill="#0973b9"/> <path d="M95.22,32.13c.28-7-6.72-6.72-6.72-6.72-4.56-.09-7.56,2.76-7.13,6.8.66,6.18,6.68,5.87,6.68,5.87,7.7-.09,7.17-6,7.17-6M91,33.1s-.37,2.78-2.65,2.83c0,0-2.26.41-2.86-3.2,0-.42,0-.84,0-1.27,0-.18,0-1.42.11-1.49s0,.1,0,.11c.37-2.23,4.09-4.23,5.34,0a7.78,7.78,0,0,1,0,3Z" fill="#0973b9"/> <path d="M97.49,25.41h3.92v3.94s.85-3.24,3.5-3.94a3.7,3.7,0,0,1,3,1.05l-1,3.35s-2.36-1.7-3.77-.17c0,0-.85.45-1.68,2.49V38H97.5Z" fill="#0973b9"/> <path d="M108.93,19.62h3.89V38H109Z" fill="#0973b9"/> <path d="M124.26,19.66v6.42l-1.78-.7a6.46,6.46,0,0,0-5.8,1.69,7.08,7.08,0,0,0,.16,9.48c4.15,3.44,7.42.34,7.42.34V38h3.85l0-18.34-3.89,0m0,15s-2.44,2.15-4.35.2a5.41,5.41,0,0,1,0-6,3.65,3.65,0,0,1,4.39-.21Z" fill="#0973b9"/> <path d="M135,36.69a1.61,1.61,0,0,1-1.61,1.61,1.62,1.62,0,1,1,0-3.23h0A1.62,1.62,0,0,1,135,36.69Z" fill="#f9a342"/> <path d="M146.35,26.39l0,2.65s-2.16-1.57-3.94-1.12a3.77,3.77,0,0,0-3,3.61c0,1.71-.13,2.95,2.28,4.19a6,6,0,0,0,4.88-.58l.09,2.36s-4.44,2-7.63-.65a6.92,6.92,0,0,1-.21-9.65s2.57-2.74,7.55-.83" fill="#f9a342"/> <path d="M160.89,31c-.77-5.53-6.74-5.35-6.74-5.35a6.3,6.3,0,0,0-6.1,6.13v.12c.22,7,7.23,6.28,7.23,6.28,6.57-.87,5.61-7.18,5.61-7.18m-3.82,4.19a4.12,4.12,0,0,1-5.79-.55s-1.17-1.16-.71-3.77a4,4,0,0,1,3.64-3,4.32,4.32,0,0,1,4.1,2.67S159.24,33.43,157.07,35.14Z" fill="#f9a342"/> <path d="M162.88,25.94h2.52l0,1.4s3.63-3.95,7.08.34c0,0,5.44-5.22,7.9,1.35l.09,8.89-2.3,0-.12-8.33s-1.53-4.1-5.16-.45l-.07,8.76h-2.34V29.3s-1.59-3.42-5.16-.34v9L163,38Z" fill="#f9a342"/> <path d="M181.58,26.13v.41h1.15v3h.46v-3h1.06v-.41Z" fill="#363639"/> <path d="M184.76,26.13V29.5h.49V27l.81,2.5h.56l.9-2.47V29.5H188V26.13h-.69l-.87,2.61-1-2.61Z" fill="#363639"/> </svg>